<svg xmlns="http://www.w3.org/2000/svg" width="1440" height="980" viewBox="0 0 1440 980" fill="none">
<defs><linearGradient id="g" x1="0" y1="0" x2="1440" y2="980" gradientUnits="userSpaceOnUse"><stop stop-color="#F7FAFF"/><stop offset="1" stop-color="#EAF1FF"/></linearGradient></defs>
<rect width="1440" height="980" rx="40" fill="url(#g)"/>
<rect x="52" y="52" width="1336" height="876" rx="34" fill="white" stroke="#D9E4F5"/>
<rect x="92" y="96" width="280" height="788" rx="30" fill="#081225"/>
<rect x="124" y="132" width="216" height="64" rx="22" fill="#1456F0"/>
<rect x="124" y="232" width="216" height="54" rx="18" fill="#122342"/>
<rect x="124" y="302" width="216" height="54" rx="18" fill="#122342"/>
<rect x="124" y="372" width="216" height="54" rx="18" fill="#122342"/>
<rect x="412" y="112" width="936" height="92" rx="28" fill="#F4F7FB"/>
<text x="452" y="168" fill="#081225" font-family="Arial, sans-serif" font-size="42" font-weight="800">Kontrol Merkezi</text>
<text x="452" y="224" fill="#6B7A90" font-family="Arial, sans-serif" font-size="26">Bakım ritmi, risk ve fatura görünürlüğü</text>
<rect x="412" y="256" width="416" height="206" rx="30" fill="#081225"/>
<rect x="856" y="256" width="492" height="206" rx="30" fill="#F4F7FB" stroke="#D9E4F5"/>
<rect x="412" y="494" width="936" height="170" rx="30" fill="#F4F7FB" stroke="#D9E4F5"/>
<rect x="412" y="694" width="290" height="156" rx="30" fill="#1456F0"/>
<rect x="730" y="694" width="290" height="156" rx="30" fill="#FFFFFF" stroke="#D9E4F5"/>
<rect x="1058" y="694" width="290" height="156" rx="30" fill="#FFFFFF" stroke="#D9E4F5"/>
</svg>